<?xml version="1.0" standalone="no"?><!DOCTYPE svg PUBLIC "-//W3C//DTD SVG 1.1//EN" "http://www.w3.org/Graphics/SVG/1.1/DTD/svg11.dtd"><svg t="1682414249839" class="icon" viewBox="0 0 1024 1024" version="1.1" xmlns="http://www.w3.org/2000/svg" p-id="20151" xmlns:xlink="http://www.w3.org/1999/xlink" width="40" height="40"><path d="M279.776 617.44c0 70.688 99.68 128 232.224 128 132.544 0 233.856-57.312 233.856-128v-241.824c0-70.72-101.312-128-233.856-128-132.544 0-232.224 57.28-232.224 128v241.824z" fill="#FFFFFF" p-id="20152"></path><path d="M723.776 428.288V496c0 46.432-92.928 96-211.776 96-118.848 0-211.776-49.568-211.776-96v-67.712C340.64 468.608 420.32 496 512 496s171.36-27.424 211.776-67.712zM752 368c0-70.72-107.456-128-240-128-132.544 0-240 57.28-240 128v256c0 70.72 107.456 128 240 128 132.544 0 240-57.28 240-128v-256z m-240 96c-118.848 0-211.776-49.568-211.776-96s92.928-96 211.776-96c118.848 0 211.776 49.568 211.776 96s-92.928 96-211.776 96z m-211.776 92.288C340.64 596.608 420.32 624 512 624s171.36-27.424 211.776-67.712V624c0 46.432-92.928 96-211.776 96-118.848 0-211.776-49.568-211.776-96v-67.712z" fill="#5D6D7E" p-id="20153"></path><path d="M351.712 128C201.536 190.752 96 339.04 96 512c0 173.056 105.664 321.44 256 384.128v-34.944C219.808 800.512 128 666.976 128 512c0-154.976 91.808-288.512 224-349.184V224h32V96H256v32h95.712z" fill="#27A2DF" p-id="20154"></path><path d="M672.288 896C822.464 833.248 928 684.96 928 512c0-173.056-105.664-321.44-256-384.128v34.944c132.192 60.672 224 194.208 224 349.184 0 154.976-91.808 288.512-224 349.184V800h-32v128h128v-32h-95.712z" fill="#30AD98" p-id="20155"></path></svg>